<svg width="611" height="498" viewBox="0 0 611 498" fill="none" xmlns="http://www.w3.org/2000/svg">
<path d="M402.038 278.821C389.148 286.624 366.184 296.401 342.717 286.353L327.547 279.858L357.946 245.461C333.688 218.463 320.267 183.309 320.304 146.861C320.341 110.412 333.833 75.2861 358.146 48.3381C382.459 21.39 415.848 4.55439 451.795 1.11727C487.743 -2.31985 523.67 7.88826 552.563 29.7491C581.456 51.6099 601.242 83.5544 608.058 119.347C614.874 155.14 608.232 192.213 589.427 223.328C570.623 254.444 541.006 277.369 506.357 287.63C471.709 297.891 434.516 294.75 402.038 278.821V278.821ZM343.793 146.778C343.726 163.58 347.104 180.214 353.715 195.634C360.326 211.054 370.026 224.927 382.206 236.379L390.591 244.333L371.462 265.977C381.426 263.937 390.104 258.496 394.505 255.336L400.543 250.999L407.037 254.601C424.987 264.521 445.123 269.72 465.588 269.718C532.746 269.718 587.383 214.568 587.383 146.778C587.383 78.9894 532.746 23.8387 465.588 23.8387C398.43 23.8387 343.793 78.9894 343.793 146.778V146.778Z" fill="#3F3D56"/>
<path d="M331.985 146.778C331.985 72.2978 391.801 11.9194 465.588 11.9194C539.375 11.9194 599.192 72.2978 599.192 146.778C599.192 221.259 539.375 281.637 465.588 281.637C443.131 281.671 421.032 275.963 401.35 265.048C392.115 271.681 369.585 284.91 347.328 275.381L374.119 245.066C360.801 232.47 350.189 217.246 342.941 200.338C335.693 183.431 331.964 165.201 331.985 146.778Z" fill="#6C63FF"/>
<path opacity="0.1" d="M576.432 147.071C576.432 76.6077 522.891 18.777 454.636 12.7419C458.528 12.3978 462.465 12.2116 466.445 12.2116C540.232 12.2116 600.048 72.5901 600.048 147.071C600.048 221.551 540.232 281.93 466.445 281.93C462.471 281.93 458.541 281.741 454.655 281.398C522.901 275.354 576.432 217.527 576.432 147.071Z" fill="black"/>
<path d="M157.713 466.169C124.33 466.185 91.9555 454.618 66.0157 433.407C40.0758 412.196 22.1469 382.63 15.2336 349.663C8.32024 316.697 12.8426 282.333 28.0429 252.332C43.2431 222.33 68.1974 198.514 98.7237 184.875C129.25 171.235 163.493 168.601 195.715 177.414C227.936 186.227 256.178 205.951 275.706 233.281C295.235 260.611 304.864 293.886 302.979 327.529C301.095 361.172 287.811 393.14 265.355 418.073L295.754 452.471L280.585 458.966C257.118 469.013 234.153 459.236 221.264 451.434C201.455 461.127 179.727 466.165 157.713 466.169ZM157.713 196.451C90.5553 196.451 35.9181 251.602 35.9181 319.391C35.9181 387.18 90.5553 442.33 157.713 442.33C178.178 442.333 198.314 437.134 216.265 427.213L222.759 423.611L228.797 427.948C233.197 431.108 241.875 436.549 251.839 438.59L232.71 416.945L241.096 408.992C253.275 397.539 262.976 383.667 269.587 368.247C276.197 352.827 279.575 336.193 279.508 319.391C279.508 251.602 224.871 196.451 157.713 196.451Z" fill="#3F3D56"/>
<path d="M291.317 319.391C291.317 244.91 231.5 184.532 157.713 184.532C83.9259 184.532 24.1096 244.91 24.1096 319.391C24.1096 393.871 83.9259 454.25 157.713 454.25C180.17 454.283 202.269 448.576 221.951 437.66C231.186 444.293 253.716 457.523 275.974 447.993L249.182 417.678C262.5 405.082 273.112 389.858 280.36 372.951C287.608 356.043 291.338 337.813 291.317 319.391Z" fill="#6C63FF"/>
<path opacity="0.1" d="M47.7264 318.709C47.7264 248.246 101.267 190.416 169.522 184.381C165.63 184.037 161.693 183.85 157.713 183.85C83.9259 183.85 24.1096 244.229 24.1096 318.709C24.1096 393.19 83.9259 453.569 157.713 453.569C161.687 453.569 165.617 453.38 169.503 453.037C101.257 446.993 47.7264 389.166 47.7264 318.709Z" fill="black"/>
<path d="M496.953 103.934C488.211 89.0246 470.917 88.3298 470.917 88.3298C470.917 88.3298 454.065 86.1545 443.254 108.861C433.178 130.026 419.271 150.461 441.015 155.415L444.943 143.076L447.375 156.334C450.471 156.559 453.577 156.612 456.679 156.495C479.965 155.736 502.142 156.717 501.428 148.282C500.478 137.069 505.364 118.279 496.953 103.934Z" fill="#2F2E41"/>
<path d="M439.774 234.501C439.517 236.14 439.144 237.76 438.659 239.346C438.112 240.898 437.267 242.334 436.767 243.903C435.173 248.903 437.383 254.478 440.913 258.337C443.974 261.671 447.925 264.039 452.29 265.157C455.503 265.851 458.781 266.198 462.067 266.194C471.154 266.505 480.475 266.783 489.086 263.835C491.806 262.881 494.434 261.676 496.936 260.236C497.726 259.856 498.421 259.303 498.973 258.617C499.549 257.612 499.806 256.453 499.708 255.296C499.688 251.407 498.907 247.539 499.093 243.655C499.195 241.503 499.594 239.353 499.398 237.209C499.126 234.773 498.115 232.481 496.504 230.648C494.892 228.814 492.758 227.528 490.395 226.966C487.952 226.436 485.418 226.725 482.932 226.966C476.476 227.592 469.994 227.885 463.509 227.843C456.883 227.8 450.298 226.779 443.705 226.672C441.755 226.641 441.795 227.248 441.174 229.152C440.602 230.905 440.135 232.691 439.774 234.501Z" fill="#2F2E41"/>
<path d="M458.577 138.484C458.259 140.167 457.915 141.911 456.913 143.294C455.76 144.885 453.881 145.794 452.641 147.317C450.774 149.609 450.667 152.835 450.659 155.802C450.652 158.535 450.707 161.45 452.217 163.719C453.292 165.129 454.626 166.316 456.146 167.216C461.809 171.068 467.928 174.989 474.756 175.116C477.585 175.169 480.619 174.431 482.48 172.28C483.284 171.27 483.916 170.132 484.35 168.913C486.096 164.569 487.154 159.975 487.486 155.299C487.738 153.101 487.534 150.874 486.889 148.759C486.06 146.424 484.383 144.504 483.274 142.29C481.964 139.659 481.485 136.685 481.901 133.769C481.956 133.564 481.939 133.346 481.853 133.152C481.762 133.048 481.648 132.967 481.521 132.915C481.393 132.863 481.256 132.841 481.118 132.851L467.58 131.868C466.319 131.804 465.064 131.659 463.821 131.434C463.091 131.284 461.164 130.237 460.468 130.516C459.179 131.031 458.841 137.088 458.577 138.484Z" fill="#A0616A"/>
<path opacity="0.1" d="M458.577 138.91C458.259 140.593 457.915 142.338 456.913 143.721C455.76 145.312 453.881 146.221 452.641 147.744C450.774 150.036 450.667 153.261 450.659 156.228C450.652 158.962 450.707 161.877 452.217 164.146C453.292 165.555 454.626 166.742 456.146 167.642C461.809 171.494 467.928 175.416 474.756 175.543C477.585 175.596 480.619 174.858 482.48 172.707C483.284 171.697 483.916 170.559 484.35 169.339C486.096 164.995 487.154 160.401 487.486 155.725C487.738 153.527 487.534 151.3 486.889 149.185C486.06 146.851 484.382 144.93 483.274 142.717C481.964 140.085 481.485 137.111 481.901 134.196C481.956 133.991 481.939 133.772 481.853 133.578C481.762 133.475 481.648 133.393 481.521 133.341C481.393 133.289 481.256 133.267 481.118 133.278L467.58 132.294C466.319 132.231 465.064 132.086 463.821 131.86C463.091 131.71 461.164 130.664 460.468 130.942C459.179 131.457 458.841 137.515 458.577 138.91Z" fill="black"/>
<path d="M471.524 140.316C482.494 140.316 491.387 131.34 491.387 120.267C491.387 109.194 482.494 100.218 471.524 100.218C460.555 100.218 451.662 109.194 451.662 120.267C451.662 131.34 460.555 140.316 471.524 140.316Z" fill="#A0616A"/>
<path d="M461.363 165.172C462.344 166.319 463.527 167.273 464.852 167.986C466.233 168.563 467.716 168.848 469.21 168.824C472.791 168.926 476.672 168.263 479.163 165.665C482.374 162.316 482.268 156.914 484.784 153.006C484.987 152.652 485.264 152.347 485.595 152.111C486.017 151.879 486.495 151.768 486.975 151.791C490.153 151.761 492.922 153.842 495.42 155.825C496.596 156.642 497.606 157.68 498.393 158.882C498.887 159.855 499.226 160.901 499.396 161.98C500.636 168.09 501.037 174.338 501.436 180.561C501.656 183.999 501.876 187.44 501.86 190.885C501.806 202.234 499.193 213.394 496.594 224.436C496.259 225.859 495.801 227.449 494.519 228.131C493.947 228.39 493.334 228.541 492.708 228.577C485.265 229.459 477.806 230.342 470.312 230.459C467.387 230.504 464.464 230.433 461.542 230.245C461.039 230.238 460.541 230.15 460.065 229.985C459.42 229.672 458.865 229.196 458.455 228.604C454.401 223.448 454.162 216.32 454.188 209.738C454.251 193.645 454.821 177.565 455.897 161.498C455.985 160.172 456.005 158.561 455.058 157.518C456.901 160.276 459.014 162.84 461.363 165.172Z" fill="white"/>
<path d="M457.156 142.023C456.485 143.248 451.539 146.292 450.584 147.308C445.249 152.984 435.512 152.771 430.633 158.851C428.917 160.99 428.025 163.677 427.369 166.349C426.441 170.128 425.946 174.25 427.5 177.813C428.995 181.242 432.143 183.612 434.281 186.675C436.627 190.038 437.682 194.121 438.694 198.106C439.44 201.048 440.193 204.063 439.902 207.086C439.572 210.523 437.924 213.67 436.951 216.98C435.978 220.291 435.81 224.234 438.06 226.836C439.712 228.747 442.304 229.505 444.782 229.931C447.955 230.412 451.155 230.694 454.363 230.773C457.195 230.899 460.317 230.924 462.494 229.091C464.212 227.645 464.959 225.298 465.056 223.043C465.152 220.787 464.687 218.551 464.396 216.312C464.094 213.991 463.978 211.65 463.881 209.312C463.446 198.818 463.386 188.318 463.703 177.812C463.862 175.628 463.756 173.433 463.387 171.275C462.779 168.465 461.275 165.953 460.019 163.37C457.509 158.507 456.373 153.04 456.733 147.568C457.114 141.945 459.543 137.661 457.156 142.023Z" fill="white"/>
<path d="M485.048 142.449C486.07 143.509 489.542 143.859 490.842 144.541C492.064 145.111 493.34 145.557 494.65 145.872C499.392 147.253 503.902 149.342 508.03 152.071C508.888 152.577 509.646 153.239 510.267 154.022C510.922 155.096 511.344 156.299 511.505 157.55C512.142 160.732 512.781 163.953 512.638 167.196C512.486 170.639 511.459 173.973 510.44 177.262L506.632 189.552C503.789 198.725 500.928 207.988 500.128 217.566C499.686 222.874 499.883 228.217 500.714 233.477C500.793 233.733 500.816 234.003 500.783 234.268C500.75 234.534 500.661 234.79 500.522 235.018C500.271 235.268 499.941 235.422 499.59 235.451C497.752 235.741 495.973 234.795 494.308 233.958C489.218 231.401 483.786 229.607 478.183 228.632C480.372 225.439 482.062 221.924 483.191 218.211C483.833 215.854 484.338 213.461 484.704 211.044L486.476 200.702C487.197 196.921 487.704 193.103 487.996 189.265C488.13 187.824 488.046 186.371 487.749 184.956C487.341 183.609 486.799 182.308 486.131 181.071C483.211 174.941 481.842 167.945 482.99 161.243C483.493 158.31 484.47 155.373 484.063 152.425C483.671 149.59 484.078 147.387 483.358 144.582C480.399 133.064 483.126 140.455 485.048 142.449Z" fill="white"/>
<path d="M430.583 168.543C429.252 171.331 427.027 173.706 426.269 176.705C425.974 178.107 425.848 179.539 425.893 180.971C425.762 183.129 425.973 185.295 426.52 187.386C426.943 188.708 427.63 189.928 428.126 191.224C428.816 193.036 429.124 194.973 429.029 196.911C428.895 199.597 427.992 202.204 427.921 204.892C427.81 209.119 429.747 213.093 431.637 216.866C432.112 215.677 432.84 214.607 433.768 213.732C434.696 212.856 435.803 212.195 437.01 211.796C438.217 211.397 439.497 211.269 440.758 211.422C442.02 211.574 443.233 212.002 444.313 212.677C444.746 212.141 444.951 211.453 444.885 210.764C445.024 205.86 445.159 200.956 445.289 196.052C445.493 188.467 445.688 180.781 443.96 173.396C443.179 170.062 441.965 166.741 439.739 164.155C438.566 162.793 434.587 159.207 432.663 160.732C431.797 161.418 432 163.285 431.863 164.231C431.656 165.726 431.224 167.18 430.583 168.543Z" fill="white"/>
<path d="M513.027 160.509C513.563 162.519 513.792 164.6 513.707 166.68C513.733 170.92 513.677 175.158 513.54 179.397C513.561 181.571 513.286 183.737 512.722 185.835C512.292 187.199 511.629 188.479 511.185 189.838C509.854 193.914 510.581 198.333 510.695 202.623C510.776 204.011 510.658 205.404 510.347 206.758C509.645 209.417 507.758 211.565 506.441 213.975C505.19 216.263 504.436 218.828 502.942 220.963C501.448 223.097 498.862 224.789 496.356 224.133C494.457 223.637 493.107 221.94 492.174 220.198C490.137 216.369 489.441 211.958 490.197 207.679C491.134 202.473 494.164 197.855 495.256 192.68C496.756 185.574 494.476 178.241 494.544 170.976C494.513 169.837 494.666 168.7 494.997 167.611C495.57 165.952 496.801 164.626 497.938 163.295C499.359 161.632 500.679 159.884 501.891 158.059C502.705 156.834 503.81 153.682 505.253 153.42C508.475 152.835 512.228 157.996 513.027 160.509Z" fill="white"/>
<path d="M413.864 231.34C412.082 230.888 410.247 230.691 408.41 230.755C406.481 230.863 404.597 231.384 402.883 232.283C401.169 233.183 399.664 234.44 398.468 235.973C397.273 237.505 396.414 239.276 395.95 241.169C395.485 243.062 395.425 245.033 395.774 246.952C396.219 249.029 396.946 251.035 397.935 252.912C399.381 255.875 401.116 258.831 403.793 260.729C405.406 261.773 407.143 262.608 408.963 263.214L423.065 268.576C425.14 269.365 427.215 270.154 429.31 270.885C439.835 274.558 450.809 276.76 461.925 277.43C465.308 277.75 468.719 277.576 472.052 276.912C472.858 276.806 473.597 276.403 474.126 275.781C474.395 275.309 474.553 274.78 474.59 274.236L475.457 268.104C475.651 267.251 475.626 266.361 475.384 265.519C474.986 264.489 473.99 263.841 473.04 263.29C463.769 257.915 452.944 254.95 445.14 247.573C443.303 245.836 441.766 243.084 439.534 241.904C437.003 240.566 434.022 239.803 431.406 238.57C425.686 235.875 420.063 232.778 413.864 231.34Z" fill="#2F2E41"/>
<path opacity="0.1" d="M427.943 239.607C432.927 241.183 453.971 252.106 457.578 255.919C457.095 256.095 440.691 246.815 440.198 246.666C435.686 245.415 431.268 243.844 426.976 241.963C426.121 241.564 421.422 239.688 421.635 238.599C421.875 237.371 427.058 239.327 427.943 239.607Z" fill="black"/>
<path d="M490.127 280.61C490.409 280.631 490.69 280.548 490.917 280.376C491.016 280.247 491.089 280.099 491.131 279.942C491.174 279.784 491.185 279.62 491.164 279.458L491.14 271.104C488.761 269.959 486.098 269.593 483.486 269.24L471.294 267.595C471.574 267.633 469.388 272.896 469.723 273.598C470.314 274.836 474.829 275.934 476.103 276.519C480.534 278.551 485.137 280.786 490.127 280.61Z" fill="#A0616A"/>
<path d="M451.875 271.075C449.573 271.445 447.004 271.772 445.514 273.581C443.623 275.875 444.428 279.294 445.33 282.136C445.385 282.502 445.512 282.854 445.704 283.17C445.896 283.487 446.149 283.761 446.448 283.976C446.747 284.192 447.085 284.345 447.444 284.427C447.803 284.508 448.174 284.516 448.535 284.45C450.634 284.584 452.869 284.689 454.703 283.65C455.534 283.096 456.333 282.496 457.099 281.852C458.451 280.944 459.938 280.258 461.504 279.819C464.382 278.906 467.344 278.289 470.346 277.98C471.529 277.926 472.699 277.717 473.829 277.36C474.394 277.177 474.908 276.864 475.334 276.447C475.759 276.03 476.084 275.52 476.282 274.956C476.707 273.438 475.833 271.89 474.995 270.559C474.029 268.815 472.775 267.251 471.287 265.933C469.015 264.152 467.891 265.519 465.603 266.659C461.272 268.817 456.645 270.305 451.875 271.075Z" fill="#A0616A"/>
<path d="M445.86 273.168L431.244 268.807C429.49 268.191 427.659 267.833 425.804 267.744C424.876 267.705 423.95 267.867 423.089 268.219C422.227 268.57 421.45 269.104 420.809 269.783C419.676 271.125 419.351 272.96 419.069 274.701L418.465 278.425C418.061 280.302 417.947 282.231 418.126 284.143C418.223 285.1 418.535 286.021 419.039 286.837C419.542 287.654 420.223 288.344 421.03 288.854C423.052 289.968 425.531 289.424 427.789 288.958C432.348 288.017 436.986 287.515 441.64 287.459C443.389 287.438 445.224 287.46 446.77 286.633C447.667 286.096 448.421 285.346 448.966 284.448C449.511 283.55 449.83 282.531 449.896 281.481C450.184 278.3 449.133 274.145 445.86 273.168Z" fill="#2F2E41"/>
<path d="M495.872 269.368C497.767 269.033 499.439 267.946 501.255 267.304C503.81 266.401 506.579 266.401 509.287 266.411C510.283 266.319 511.283 266.522 512.167 266.993C513.36 267.795 513.665 269.399 513.868 270.83L515.092 279.468C515.419 281.08 515.453 282.738 515.192 284.362C514.833 285.963 513.752 287.506 512.178 287.919C510.267 288.421 508.393 287.188 506.588 286.379C502.078 284.355 496.835 284.872 492.132 283.36C491.682 283.269 491.257 283.083 490.884 282.814C490.511 282.544 490.199 282.198 489.968 281.798C489.808 281.319 489.75 280.81 489.8 280.306C489.881 277.529 489.3 273.738 490.129 271.084C490.873 268.698 493.757 269.368 495.872 269.368Z" fill="#2F2E41"/>
<path d="M526.803 227.863C529.723 227.124 532.751 226.915 535.744 227.247C538.134 227.513 540.597 228.184 542.342 229.854C544.466 231.887 545.149 235.03 545.206 237.984C545.299 243.867 543.366 249.601 539.737 254.205C538.85 255.37 537.796 256.394 536.61 257.244C535.33 258.052 533.965 258.716 532.541 259.223L500.961 271.796C492.653 275.104 484.315 278.421 475.649 280.602C475.412 280.717 475.155 280.784 474.892 280.797C474.629 280.811 474.367 280.771 474.119 280.681C473.872 280.59 473.645 280.451 473.452 280.27C473.259 280.09 473.103 279.872 472.995 279.631C470.228 275.641 467.907 271.355 466.073 266.85C465.986 266.743 465.926 266.617 465.898 266.481C465.87 266.346 465.875 266.206 465.912 266.072C465.949 265.939 466.017 265.817 466.111 265.716C466.205 265.615 466.321 265.538 466.45 265.492L488.787 252.538C490.425 251.675 491.952 250.613 493.334 249.375C494.299 248.431 495.09 247.32 495.668 246.095C496.131 245.119 496.174 242.816 496.766 242.094C497.345 241.388 499.326 241.331 500.24 241.053C501.531 240.654 502.794 240.172 504.023 239.61C509.02 237.354 513.469 234.075 518.259 231.433C520.946 229.883 523.817 228.683 526.803 227.863Z" fill="#2F2E41"/>
<path opacity="0.1" d="M514.14 237.538C510.302 240.447 505.333 243.122 501.53 246.108C500.232 247.127 478.592 259.407 478.286 261.038C481.835 261.642 504.438 245.68 507.673 244.087C510.907 242.494 513.773 240.248 516.614 238.019C517.338 237.451 520.406 235.743 518.328 235.108C517.157 234.75 515.004 236.956 514.14 237.538Z" fill="black"/>
<path d="M487.734 142.731H454.047C452.679 142.731 451.366 143.28 450.398 144.257C449.43 145.233 448.887 146.558 448.887 147.94V149.847H448.521V154.113H448.887V157.099H448.521V159.659H448.887V191.134C448.887 192.515 449.43 193.84 450.398 194.817C451.366 195.794 452.679 196.343 454.047 196.343H487.734C489.103 196.343 490.415 195.794 491.383 194.817C492.351 193.84 492.895 192.515 492.895 191.134V147.94C492.895 146.558 492.351 145.233 491.383 144.257C490.415 143.28 489.103 142.731 487.734 142.731Z" fill="#D0CDE1"/>
<path d="M493.088 102.497L476.002 93.4627L452.407 97.1586L447.526 118.922L459.678 118.45L463.072 110.454V118.319L468.679 118.101L471.934 105.371L473.968 118.922L493.902 118.511L493.088 102.497Z" fill="#2F2E41"/>
<path d="M435.053 225.044C435.826 226.371 436.924 227.474 438.242 228.247C439.107 228.646 440.05 228.84 441 228.814C441.951 228.788 442.882 228.544 443.725 228.099C445.407 227.188 446.784 225.795 447.681 224.095C449.538 220.785 449.923 216.824 449.691 213.028C449.459 209.231 448.656 205.493 448.301 201.706C448.042 198.953 448.021 196.184 448 193.419C447.936 192.838 448.057 192.251 448.345 191.743C448.842 191.245 449.484 190.921 450.177 190.82C453.925 189.696 456.412 186.151 458.196 182.639C459.387 180.294 460.422 177.731 460.192 175.106C459.963 172.481 458.094 169.837 455.497 169.569C453.356 169.348 451.379 170.721 449.834 172.234C445.938 176.074 443.434 181.125 442.725 186.575C442.386 189.244 442.483 191.986 441.764 194.577C440.228 200.109 435.424 203.501 433.03 208.479C430.391 213.964 431.847 220.191 435.053 225.044Z" fill="#A0616A"/>
<path d="M505.752 203.909C505.206 205.192 504.41 206.352 503.413 207.319C502.415 208.287 501.236 209.043 499.944 209.543C498.338 210.194 496.567 210.303 494.894 209.855C494.065 209.623 493.3 209.201 492.658 208.621C492.017 208.042 491.516 207.322 491.195 206.515C490.939 205.703 490.799 204.859 490.779 204.007C490.538 200.276 490.631 196.432 491.974 192.947C492.492 191.603 493.19 190.329 493.598 188.947C494 187.351 494.205 185.712 494.21 184.065L494.651 173.886C494.724 173.147 494.674 172.401 494.502 171.679C494.061 170.206 492.698 169.249 491.446 168.371C488.424 166.249 485.438 163.774 483.974 160.365C483.471 159.339 483.291 158.182 483.458 157.05C483.87 155.028 485.891 153.72 487.889 153.279C489.196 152.99 490.547 152.972 491.861 153.225C493.175 153.477 494.425 153.996 495.535 154.749C496.646 155.503 497.593 156.475 498.321 157.608C499.049 158.741 499.543 160.011 499.772 161.341C499.969 162.49 499.967 163.663 500.082 164.823C500.328 167.284 501.101 169.656 501.586 172.081C502.778 178.053 502.16 184.226 503.34 190.197C504.326 195.189 508.044 198.447 505.752 203.909Z" fill="#A0616A"/>
<path d="M471.341 165.631C473.675 165.631 475.568 163.721 475.568 161.365C475.568 159.009 473.675 157.099 471.341 157.099C469.007 157.099 467.115 159.009 467.115 161.365C467.115 163.721 469.007 165.631 471.341 165.631Z" fill="#6C63FF"/>
<path d="M12.4677 314.678C19.3527 314.678 24.9341 309.044 24.9341 302.095C24.9341 295.145 19.3527 289.511 12.4677 289.511C5.58274 289.511 0.00134277 295.145 0.00134277 302.095C0.00134277 309.044 5.58274 314.678 12.4677 314.678Z" fill="#2F2E41"/>
<path d="M57.6563 339.451L51.3772 333.291L38.7684 337.244L39.9795 351.981L65.9048 350.765L57.9404 339.841L57.6563 339.451Z" fill="#FBBEBE"/>
<path d="M43.9233 339.325C55.0545 339.325 64.078 330.216 64.078 318.981C64.078 307.745 55.0545 298.636 43.9233 298.636C32.7921 298.636 23.7686 307.745 23.7686 318.981C23.7686 330.216 32.7921 339.325 43.9233 339.325Z" fill="#FBBEBE"/>
<path d="M169.045 365.563C169.045 365.563 193.806 408.515 199.698 414.963C202.501 418.136 205.486 421.14 208.639 423.958C208.639 423.958 205.869 433.233 201.457 432.902C198.942 432.749 196.476 432.135 194.179 431.091C194.179 431.091 192.209 425.938 188.774 423.679C185.339 421.419 157.276 393.551 157.932 384.644C158.588 375.737 169.045 365.563 169.045 365.563Z" fill="#2F2E41"/>
<path d="M80.8655 426.857C80.8655 426.857 107.266 447.54 143.145 428.105L146.237 425.808C146.237 425.808 141.019 437.657 140.534 440.869C139.973 444.594 126.388 466.413 124.171 467.459C121.954 468.504 121.465 469.468 121.465 469.468L130.873 479.921L134.352 477.337C134.352 477.337 147.915 457.94 151.882 454.391C155.849 450.843 174.75 414.25 174.75 414.25C174.75 414.25 181.977 400.462 163.942 399.425C145.907 398.388 137.608 403.35 137.608 403.35L105.601 408.482L80.8655 426.857Z" fill="#2F2E41"/>
<path d="M208.946 421.926L222.299 431.252C222.299 431.252 239.335 436.639 228.841 440.225C218.347 443.81 190.693 445.107 190.066 440.16C189.438 435.214 191.157 427.428 192.536 427.854C193.916 428.279 203.491 430.789 208.946 421.926Z" fill="#2F2E41"/>
<path d="M135.534 474.133L138.005 487.833C138.005 487.833 145.033 501.399 136.595 497.19C128.157 492.98 110.772 476.991 113.339 473.639C115.907 470.287 121.573 466.651 122.148 467.743C122.723 468.836 126.982 476.15 135.534 474.133Z" fill="#2F2E41"/>
<path d="M110.072 412.979C110.072 412.979 92.1256 434.129 81.2302 428.991C70.3347 423.854 25.7595 364.348 30.8492 353.35C35.9389 342.353 37.6455 344.693 37.6455 344.693L60.6611 346.842L54.0389 336.124C54.0389 336.124 57.1309 333.827 60.0773 337.051C63.0236 340.275 74.8527 348.328 78.9735 359.701C83.0944 371.074 95.1928 370.506 95.1928 370.506L110.072 412.979Z" fill="white"/>
<path d="M182.544 369.369L151.435 402.701L123.567 353.037L150.06 320.727L182.544 369.369Z" fill="#3F3D56"/>
<path d="M180.196 369.008L152.099 398.299L126.638 353.162L149.988 323.488L180.196 369.008Z" fill="white"/>
<path d="M149.911 401.428L151.435 402.701L150.458 404.63L106.958 417.698L106.546 416.194L108.525 414.128L149.911 401.428Z" fill="#B3B3B3"/>
<path d="M151.821 402.414L106.776 416.631L79.3168 364.257L123.567 353.037L151.821 402.414Z" fill="#D0CDE1"/>
<path d="M148.43 395.311L146.498 396.746L125.049 359.154L127.265 358.109L148.43 395.311Z" fill="#3F3D56"/>
<path d="M143.996 397.401L124.941 403.137L103.309 364.477L122.161 360.097L143.996 397.401Z" fill="#3F3D56"/>
<path d="M90.314 368.718L94.2592 367.591C94.2592 367.591 116.261 365.08 116.582 372.058C116.903 379.037 91.3061 375.799 91.3061 375.799L87.8929 371.117L90.314 368.718Z" fill="#FBBEBE"/>
<path d="M109.612 400.09L115.103 397.815C115.103 397.815 131.679 390.313 126.924 385.426C122.169 380.538 107.504 389.026 107.504 389.026L104.696 391.713L109.612 400.09Z" fill="#FBBEBE"/>
<path d="M104.718 389.291C104.718 389.291 113.659 398.286 111.625 400.399C109.59 402.512 76.2275 430.302 67.9573 421.41C59.687 412.518 19.3932 367.874 35.0721 364.046C50.7511 360.217 54.8937 369.168 54.8937 369.168L75.5919 404.913L104.718 389.291Z" fill="white"/>
<path d="M77.9454 361.968L92.6327 366.995L92.3928 377.698L76.8595 376.006L77.9454 361.968Z" fill="white"/>
<path opacity="0.2" d="M91.1832 394.835L75.3588 404.185L57.2789 376.117L74.7312 399.238L91.1832 394.835Z" fill="black"/>
<path d="M35.0768 337.302C48.3282 337.302 59.0705 326.459 59.0705 313.083C59.0705 299.707 48.3282 288.864 35.0768 288.864C21.8254 288.864 11.083 299.707 11.083 313.083C11.083 326.459 21.8254 337.302 35.0768 337.302Z" fill="#2F2E41"/>
<path d="M164.721 371.482L147.92 346.674L155.042 337.776L172.499 363.298L164.721 371.482Z" fill="#6C63FF"/>
<path d="M164.247 381.456L138.67 343.923L139.932 342.385L165.389 380.006L164.247 381.456Z" fill="#E6E6E6"/>
<path d="M160.951 385.107L135.374 347.574L136.636 346.036L162.093 383.658L160.951 385.107Z" fill="#E6E6E6"/>
<path d="M158.143 387.794L132.567 350.261L133.828 348.723L159.285 386.345L158.143 387.794Z" fill="#E6E6E6"/>
<path d="M45.7021 296.914H53.1245C56.8827 296.914 60.4869 298.421 63.1443 301.103C65.8017 303.786 67.2946 307.424 67.2946 311.217H45.7021V296.914Z" fill="#2F2E41"/>
<path d="M147.945 287.812L146.6 287.711C146.547 288.417 146.51 289.127 146.466 289.836L140.426 289.632L146.761 301.615L153.877 290.086L147.815 289.881C147.858 289.192 147.894 288.5 147.945 287.812Z" fill="#3F3D56"/>
<path d="M183.371 190.13L184.444 190.956C186.053 188.829 187.733 186.705 189.439 184.644L188.403 183.77C186.685 185.847 184.992 187.986 183.371 190.13Z" fill="#3F3D56"/>
<path d="M193.708 177.642L194.705 178.56C196.495 176.581 198.354 174.616 200.229 172.718L199.274 171.756C197.384 173.668 195.512 175.648 193.708 177.642Z" fill="#3F3D56"/>
<path d="M205.089 166.123L206.001 167.127C207.96 165.312 209.981 163.52 212.01 161.799L211.142 160.756C209.098 162.489 207.061 164.295 205.089 166.123Z" fill="#3F3D56"/>
<path d="M174.16 203.493L175.3 204.221C176.719 201.956 178.208 199.69 179.727 197.486L178.619 196.708C177.089 198.928 175.589 201.211 174.16 203.493Z" fill="#3F3D56"/>
<path d="M217.422 155.663L218.244 156.743C220.353 155.109 222.522 153.503 224.692 151.971L223.918 150.854C221.732 152.399 219.546 154.016 217.422 155.663Z" fill="#3F3D56"/>
<path d="M166.152 217.632L167.352 218.255C168.567 215.868 169.853 213.477 171.173 211.148L170.001 210.472C168.672 212.818 167.376 215.227 166.152 217.632Z" fill="#3F3D56"/>
<path d="M153.135 255.975L151.828 255.636C151.161 258.249 150.544 260.915 149.993 263.558L151.313 263.839C151.86 261.215 152.473 258.569 153.135 255.975Z" fill="#3F3D56"/>
<path d="M230.615 146.342L231.339 147.491C233.576 146.054 235.876 144.648 238.175 143.312L237.502 142.132C235.185 143.478 232.868 144.894 230.615 146.342Z" fill="#3F3D56"/>
<path d="M149.84 271.776L148.509 271.555C148.075 274.214 147.695 276.924 147.378 279.609L148.718 279.77C149.033 277.106 149.41 274.416 149.84 271.776Z" fill="#3F3D56"/>
<path d="M159.416 232.44L160.666 232.953C161.666 230.467 162.737 227.969 163.847 225.528L162.621 224.959C161.502 227.419 160.423 229.936 159.416 232.44Z" fill="#3F3D56"/>
<path d="M154.01 247.804L155.301 248.202C156.079 245.632 156.925 243.046 157.815 240.516L156.543 240.06C155.647 242.609 154.794 245.214 154.01 247.804Z" fill="#3F3D56"/>
<path d="M321.905 119.19C324.55 119.098 327.244 119.061 329.909 119.086L329.921 117.724C327.237 117.699 324.523 117.736 321.858 117.829L321.905 119.19Z" fill="#3F3D56"/>
<path d="M244.564 138.235L245.185 139.445C247.542 138.212 249.954 137.018 252.356 135.895L251.789 134.659C249.369 135.79 246.938 136.994 244.564 138.235Z" fill="#3F3D56"/>
<path d="M353.838 120.889C356.47 121.265 359.127 121.705 361.735 122.198L361.983 120.859C359.356 120.363 356.679 119.919 354.026 119.54L353.838 120.889Z" fill="#3F3D56"/>
<path d="M369.567 123.859C372.152 124.469 374.76 125.146 377.318 125.872L377.683 124.56C375.106 123.829 372.478 123.147 369.874 122.533L369.567 123.859Z" fill="#3F3D56"/>
<path d="M384.97 128.231C387.49 129.07 390.028 129.978 392.512 130.931L392.992 129.658C390.488 128.698 387.932 127.782 385.393 126.937L384.97 128.231Z" fill="#3F3D56"/>
<path d="M337.909 119.334C340.567 119.474 343.252 119.677 345.891 119.934L346.021 118.578C343.363 118.319 340.657 118.115 337.98 117.974L337.909 119.334Z" fill="#3F3D56"/>
<path d="M305.793 119.103L305.957 120.455C308.587 120.129 311.265 119.857 313.916 119.646L313.811 118.288C311.139 118.5 308.442 118.774 305.793 119.103Z" fill="#3F3D56"/>
<path d="M274.31 125.918L274.709 127.219C277.245 126.427 279.833 125.681 282.402 125.003L282.06 123.685C279.473 124.368 276.865 125.119 274.31 125.918Z" fill="#3F3D56"/>
<path d="M259.16 131.411L259.673 132.671C262.126 131.655 264.633 130.682 267.122 129.779L266.666 128.497C264.157 129.407 261.632 130.387 259.16 131.411Z" fill="#3F3D56"/>
<path d="M289.902 121.803L290.184 123.135C292.777 122.574 295.42 122.064 298.042 121.618L297.818 120.275C295.177 120.724 292.513 121.238 289.902 121.803Z" fill="#3F3D56"/>
<path d="M412.648 139.354L405.106 128.104L402.455 133.614C401.813 133.324 401.174 133.029 400.533 132.749L399.997 133.999C400.623 134.273 401.242 134.559 401.865 134.84L399.225 140.323L412.648 139.354Z" fill="#3F3D56"/>
</svg>
